# xmcd CD database file
#
# Track frame offsets:
#	150
#	20142
#	36327
#	49805
#	63794
#	74767
#	85721
#	104534
#	118887
#	132458
#	145712
#	159766
#	174673
#	185282
#	199316
#	214339
#	231937
#
# Disc length: 3262 seconds
#
# Revision: 0
# Processed by: cddbd v1.5.1PL2 Copyright (c) Steve Scherf et al.
# Submitted via: CDex 1.50beta10
#
DISCID=010cbc11
DTITLE=Costa Brothers - We're From The Country
DYEAR=1900
DGENRE=Country
TTITLE0=I Swear
TTITLE1=That'll Be Alright
TTITLE2=Could I Have This Dance
TTITLE3=The Biggest Disappointment
TTITLE4=Blue Spanish Eyes
TTITLE5=World's Greatest Mum
TTITLE6=Neon Moon
TTITLE7=Suspicious Minds
TTITLE8=Am I That Easy To Forget
TTITLE9=Never Walk Alone
TTITLE10=Blue Eyes Crying In The Rain
TTITLE11=I'm From The Country
TTITLE12=Crystal Chanderliers
TTITLE13=Guitars and Cadillacs
TTITLE14=It's Now Or Never
TTITLE15=Ghost Riders
TTITLE16=Mallee Moon
EXTD=
EXTT0=
EXTT1=
EXTT2=
EXTT3=
EXTT4=
EXTT5=
EXTT6=
EXTT7=
EXTT8=
EXTT9=
EXTT10=
EXTT11=
EXTT12=
EXTT13=
EXTT14=
EXTT15=
EXTT16=
PLAYORDER=
